<svg width="57" height="64" viewBox="0 0 57 64" fill="none" xmlns="http://www.w3.org/2000/svg"><path fill-rule="evenodd" clip-rule="evenodd" d="M9.63441 4.81714H46.7957C52.1166 4.81714 56.4301 9.13061 56.4301 14.4515V37.1612C56.4301 51.9838 44.414 63.9999 29.5914 63.9999H26.8387C12.0161 63.9999 0 51.9838 0 37.1612L0 14.4515C0 9.13061 4.31347 4.81714 9.63441 4.81714Z" fill="#FFC100"/><path fill-rule="evenodd" clip-rule="evenodd" d="M33.2159 4.81714H46.7956C52.1166 4.81714 56.43 9.13061 56.43 14.4515V20.5319L15.478 61.484C6.57829 57.3199 0.340042 48.4151 0.0133972 38.0197L33.2159 4.81714Z" fill="#FFD040"/><path fill-rule="evenodd" clip-rule="evenodd" d="M9.63441 0H46.7957C52.1166 0 56.4301 4.31347 56.4301 9.63441V33.7204C56.4301 47.7829 45.0302 59.1828 30.9677 59.1828H25.4624C11.3999 59.1828 0 47.7829 0 33.7204L0 9.63441C0 4.31347 4.31347 0 9.63441 0Z" fill="#FEC701"/><path d="M9.63441 6.19355C7.73407 6.19355 6.19355 7.73407 6.19355 9.63441V33.7204C6.19355 44.3623 14.8205 52.9892 25.4624 52.9892H30.9677C41.6096 52.9892 50.2366 44.3623 50.2366 33.7204V9.63441C50.2366 7.73407 48.696 6.19355 46.7957 6.19355H9.63441ZM9.63441 0H46.7957C52.1166 0 56.4301 4.31347 56.4301 9.63441V33.7204C56.4301 47.7829 45.0302 59.1828 30.9677 59.1828H25.4624C11.3999 59.1828 0 47.7829 0 33.7204V9.63441C0 4.31347 4.31347 0 9.63441 0Z" fill="#FEE333"/><path fill-rule="evenodd" clip-rule="evenodd" d="M38.0333 0H46.7958C52.1167 0 56.4302 4.31347 56.4302 9.63441V20.532L18.6899 58.2723C9.16646 55.6511 1.87734 47.6373 0.3125 37.7208L38.0333 0Z" fill="#FED540"/><path d="M14.6104 42.3969L15.5906 32.1489L25.1791 32.0143L25.8766 41.743L15.5177 43.2352C15.0952 43.3061 14.693 43.0237 14.6183 42.604C14.6063 42.5356 14.6038 42.466 14.6104 42.3969Z" fill="#FFC800"/><path d="M15.6085 32.1306L34.484 12.7229L44.7377 22.2868L25.8622 41.6945L15.6085 32.1306Z" fill="#ED8200"/><path d="M32.3439 21.3334L22.0214 31.656" stroke="#FF9600" stroke-width="3.63363" stroke-linecap="round"/><path d="M34.867 13.9543L36.1753 12.5517C37.3525 11.4635 39.0974 11.9487 40.5443 13.1296L43.7139 16.086C45.1607 17.2674 45.952 19.4845 44.7748 20.5727L43.3989 21.9123L34.867 13.9543Z" fill="#FF9600"/><path d="M32.6848 12.9924C33.4836 12.2074 34.7561 12.3528 35.6845 13.1479L44.0559 20.9561C44.9843 21.7514 45.0894 23.0325 44.2906 23.8174C43.4918 24.6024 42.0916 24.594 41.1632 23.7987L32.7919 15.9905C31.8635 15.1951 31.886 13.7773 32.6848 12.9924Z" fill="#ED8200"/><path d="M15.0393 38.0975L19.8838 42.5761L15.556 43.3034C15.1216 43.3763 14.7075 43.0854 14.6308 42.6535C14.6184 42.5831 14.6153 42.5112 14.6221 42.4401L15.0393 38.0975Z" fill="#ED8200"/><path d="M6.19361 31.8397V33.7204C6.19361 43.879 14.0548 52.2015 24.0257 52.9365L18.6899 58.2723C9.16646 55.6511 1.87734 47.6373 0.3125 37.7208L6.19361 31.8397ZM50.2366 26.7256V9.63441C50.2366 7.73407 48.6961 6.19355 46.7958 6.19355H31.8397L38.0333 0H46.7958C52.1167 0 56.4302 4.31347 56.4302 9.63441V20.532L50.2366 26.7256Z" fill="#FEEA66"/></svg>