<svg width="38" height="25" viewBox="0 0 38 25" fill="none" xmlns="http://www.w3.org/2000/svg"><path d="M20.9688 12.3431C20.9688 7.64014 24.7813 3.82764 29.4842 3.82764C34.1872 3.82764 37.9997 7.64014 37.9997 12.3431V15.8549C37.9997 20.5579 34.1872 24.3704 29.4842 24.3704C24.7813 24.3704 20.9688 20.5579 20.9688 15.8549V12.3431Z" fill="#8FE91E"/><path d="M0 12.3431C0 7.64014 3.8125 3.82764 8.51546 3.82764C13.2184 3.82764 17.0309 7.64014 17.0309 12.3431V15.8549C17.0309 20.5579 13.2184 24.3704 8.51546 24.3704C3.8125 24.3704 0 20.5579 0 15.8549V12.3431Z" fill="#8FE91E"/><path d="M15.3208 6.93094C15.8547 7.48235 15.6966 8.3885 15.0082 8.72215C12.7288 9.82849 9.96123 9.32625 8.16651 7.4683C6.37178 5.61036 5.96437 2.82871 7.15149 0.591453C7.50973 -0.0828854 8.28592 -0.2023 8.81977 0.345601L15.3208 6.93094Z" fill="#8FE91E"/><path fill-rule="evenodd" clip-rule="evenodd" d="M14.5792 6.2032C16.8516 8.49666 20.859 8.49666 23.3877 6.2032C25.9165 3.90975 23.0084 19.5565 23.0084 19.5179C23.0084 19.5003 21.6562 19.4933 18.9519 19.5003C18.2284 19.5038 16.9183 19.5073 15.0323 19.5179C13.2165 9.11129 13.0654 4.6754 14.5792 6.2032Z" fill="#8FE91E"/><path d="M5.34617 2.78601L11.4784 9.58911C11.9912 10.1581 11.8016 11.0607 11.1061 11.3698C8.79162 12.3953 6.04158 11.7983 4.31358 9.88062C2.58559 7.96297 2.27652 5.16727 3.5409 2.97216C3.91671 2.31187 4.83339 2.21704 5.34617 2.78601Z" fill="#8FE91E"/><path d="M22.6835 6.93133C22.1496 7.48275 22.3077 8.38889 22.9961 8.72255C25.2755 9.82888 28.0431 9.32664 29.8378 7.4687C31.629 5.61427 32.0364 2.83262 30.8493 0.59536C30.4911 -0.0789792 29.7149 -0.198393 29.181 0.349507L22.6835 6.93133Z" fill="#8FE91E"/><path d="M32.6581 2.78943L26.5293 9.59252C26.0165 10.1615 26.2062 11.0641 26.9016 11.3732C29.2161 12.3988 31.9662 11.7982 33.6942 9.88052C35.4257 7.96287 35.7312 5.16717 34.4668 2.97206C34.0875 2.31177 33.1708 2.22045 32.6581 2.78943Z" fill="#8FE91E"/><path fill-rule="evenodd" clip-rule="evenodd" d="M8.84803 3.81494H8.48979C5.14619 3.81494 2.27674 5.82742 1.01587 8.7039V19.4336C2.27674 22.3136 5.14971 24.3261 8.48979 24.3261H8.84803C13.3506 24.3261 16.9998 20.6769 16.9998 16.1743V11.9702C16.9998 7.46761 13.3506 3.81494 8.84803 3.81494Z" fill="#8FE91E"/><path fill-rule="evenodd" clip-rule="evenodd" d="M36.9838 8.86897C35.765 5.90469 32.8464 3.81494 29.4431 3.81494H29.1586C29.1375 3.81494 29.1165 3.81494 29.0954 3.81494C24.5928 3.85006 20.9717 7.53083 21.0068 12.0299L21.0385 16.234C21.0736 20.712 24.7122 24.3226 29.1902 24.3226H29.4431C32.8499 24.3226 35.765 22.2328 36.9838 19.2685V8.86897Z" fill="#8FE91E"/><path d="M25.5198 13.2413C26.4799 13.2413 27.2583 12.4661 27.2583 11.5098C27.2583 10.5535 26.4799 9.77832 25.5198 9.77832C24.5596 9.77832 23.7812 10.5535 23.7812 11.5098C23.7812 12.4661 24.5596 13.2413 25.5198 13.2413Z" fill="white"/><path fill-rule="evenodd" clip-rule="evenodd" d="M18.98 17.0991C20.9085 17.0991 22.438 18.6286 22.438 20.5571C22.438 22.4856 20.9085 24.0151 18.98 24.0151C17.0515 24.0151 15.522 22.4856 15.522 20.5571C15.522 18.6286 17.118 17.0991 18.98 17.0991Z" fill="#F49000"/><path d="M14.7249 19.5404C15.0574 17.6119 16.8529 16.1489 19.0473 16.1489C20.9758 16.1489 22.7713 17.6119 23.1038 19.5404V20.4714C22.5718 19.6734 21.8403 19.3409 20.9093 19.5404C20.0448 19.7399 19.3133 20.3384 18.9143 21.3359L14.7249 20.4714V19.5404Z" fill="#FFC200"/><path fill-rule="evenodd" clip-rule="evenodd" d="M29.8837 6.7168C33.0166 6.7168 35.5594 9.2561 35.5594 12.3925V15.7536C35.5594 18.8865 33.0201 21.4293 29.8837 21.4293C26.7508 21.4293 24.208 18.89 24.208 15.7536V12.3925C24.208 9.2561 26.7473 6.7168 29.8837 6.7168Z" fill="white" stroke="white" stroke-width="0.949999"/><path fill-rule="evenodd" clip-rule="evenodd" d="M28.0601 9.97705C29.5457 9.97705 30.7539 11.1817 30.7539 12.6709V15.5474C30.7539 17.033 29.5492 18.2412 28.0601 18.2412C26.5744 18.2412 25.3662 17.0365 25.3662 15.5474V12.6709C25.3697 11.1817 26.5744 9.97705 28.0601 9.97705Z" fill="#122431"/><path d="M36.1727 17.1001C36.6604 19.1067 35.4413 21.1054 33.5386 21.9078C32.9031 22.1758 32.2827 22.4676 31.6757 22.7842C29.9168 23.7014 27.6719 23.2982 26.5996 21.6294C29.4496 19.5567 32.665 18.0981 36.1727 17.1001Z" fill="#8FE91E"/><path d="M29.8071 12.4434C32.392 10.951 34.4283 9.17657 35.4721 7.64755C36.3596 6.3476 34.9621 5.63986 33.599 6.42686L20.2324 14.144C21.1477 15.7294 25.4344 14.968 29.8071 12.4434Z" fill="#8FE91E"/><path d="M22.325 12.825L34.1999 7.6L29.9249 4.75L23.2749 8.07499L22.325 12.825Z" fill="#8FE91E"/><path fill-rule="evenodd" clip-rule="evenodd" d="M8.1229 6.7168C4.99003 6.7168 2.44722 9.2561 2.44722 12.3925V15.7536C2.44722 18.8865 4.98652 21.4293 8.1229 21.4293C11.2558 21.4293 13.7986 18.89 13.7986 15.7536V12.3925C13.7986 9.2561 11.2593 6.7168 8.1229 6.7168Z" fill="white" stroke="white" stroke-width="0.949999"/><path fill-rule="evenodd" clip-rule="evenodd" d="M9.94703 9.97705C8.46137 9.97705 7.25318 11.1817 7.25318 12.6709V15.5474C7.25318 17.033 8.45786 18.2412 9.94703 18.2412C11.4327 18.2412 12.6409 17.0365 12.6409 15.5474V12.6709C12.6374 11.1817 11.4327 9.97705 9.94703 9.97705Z" fill="#122431"/><path d="M1.83416 17.1001C1.34647 19.1067 2.56553 21.1054 4.46827 21.9078C5.10373 22.1758 5.72416 22.4676 6.33115 22.7842C8.09001 23.7014 10.3349 23.2982 11.4072 21.6294C8.55723 19.5567 5.34185 18.0981 1.83416 17.1001Z" fill="#8FE91E"/><path d="M8.19977 12.4434C5.61486 10.951 3.57858 9.17657 2.5347 7.64755C1.64721 6.3476 3.04473 5.63986 4.40787 6.42686L17.7744 14.144C16.8591 15.7294 12.5724 14.968 8.19977 12.4434Z" fill="#8FE91E"/><path d="M15.6816 12.825L3.80666 7.6L8.08165 4.75L14.7316 8.07499L15.6816 12.825Z" fill="#8FE91E"/></svg>